<?xml version="1.0" encoding="UTF-8"?>
<svg id="Group_2" xmlns="http://www.w3.org/2000/svg" version="1.1" viewBox="0 0 133.5 85.9">
  <!-- Generator: Adobe Illustrator 29.5.1, SVG Export Plug-In . SVG Version: 2.1.0 Build 141)  -->
  <defs>
    <style>
      .st0 {
        fill: #c59250;
      }
    </style>
  </defs>
  <path class="st0" d="M53,25.1c.1,4,.5,17.9.6,25.3h.7c.2-7.5.6-21.5.7-25.7.3-5.7-4.5-10.7-10.3-10.7,0,0,0,2.6,0,2.6,4.7-.1,8.4,3.8,8.2,8.5"/>
  <path class="st0" d="M58.7,18.2c0,.2.5,23.4.7,32.2h.7c.2-8.8.7-32,.7-32.2.1-5.6-4.7-10.5-10.3-10.5,0,0,0,2.6,0,2.6,4.3-.2,8.2,3.5,8.2,7.9"/>
  <path class="st0" d="M63.8,11.3l.7,39.1h.7c.2-10.9.5-31.1.7-39.2,0-1.3-.3-2.6-.8-3.8-1.5-3.7-5.4-6.3-9.5-6.3v2.6c4.2-.2,8.1,3.4,8.2,7.6"/>
  <path class="st0" d="M80.4,50.4h.7s.7-25.5.7-25.7c0-4.5,3.8-8.3,8.2-8.1v-2.6c-2.1,0-4.1.7-5.8,1.9-3,2-4.7,5.6-4.4,9.2.1,4,.5,17.9.6,25.3"/>
  <path class="st0" d="M74.7,50.4h.7c.1-5.1.7-32,.7-32.2,0-4.4,3.9-8.1,8.2-7.9v-2.6c-2.4,0-4.7.9-6.5,2.4-2.4,2-3.8,5-3.7,8.1,0,.2.5,23.4.7,32.2"/>
  <path class="st0" d="M69.7,50.4h.7l.7-39.1c.2-4.2,4-7.8,8.2-7.6,0,0,0-2.6,0-2.6-4,0-7.9,2.6-9.5,6.3-.5,1.2-.8,2.5-.8,3.8l.7,39.2Z"/>
  <polygon class="st0" points="60.5 56.1 60.5 55.4 64.3 55.4 64.3 56.1 62.8 56.1 62.8 59.5 62 59.5 62 56.1 60.5 56.1"/>
  <polygon class="st0" points="65.3 59.5 65.3 55.4 66 55.4 66 57.1 68.6 57.1 68.6 55.4 69.3 55.4 69.3 59.5 68.6 59.5 68.6 57.8 66 57.8 66 59.5 65.3 59.5"/>
  <polygon class="st0" points="70.7 55.4 73.7 55.4 73.7 56.1 71.4 56.1 71.4 57.1 73.3 57.1 73.3 57.8 71.4 57.8 71.4 58.9 73.8 58.9 73.8 59.5 70.7 59.5 70.7 55.4"/>
  <polygon class="st0" points="50.8 79.7 53.7 82.5 53.7 79.7 54.4 79.7 54.4 83.8 54 83.8 51.1 81 51.1 83.8 50.4 83.8 50.4 79.7 50.8 79.7"/>
  <polygon class="st0" points="55.8 79.7 58.9 79.7 58.9 80.3 56.5 80.3 56.5 81.4 58.5 81.4 58.5 82 56.5 82 56.5 83.1 58.9 83.1 58.9 83.8 55.8 83.8 55.8 79.7"/>
  <path class="st0" d="M64.2,81.7c0,1.2-.9,2.1-2.1,2.1s-2.1-.9-2.1-2.1.9-2.1,2.1-2.1,2.1.9,2.1,2.1M62,83.2c.8,0,1.4-.6,1.4-1.4s-.6-1.4-1.4-1.4-1.4.6-1.4,1.4.6,1.4,1.4,1.4"/>
  <path class="st0" d="M65.4,83.8v-4.1h1.8c.8,0,1.4.5,1.4,1.2s-.6,1.2-1.4,1.2h-1.1v1.6h-.7ZM67.1,81.6c.4,0,.7-.3.7-.6s-.3-.6-.7-.6h-1v1.2h1Z"/>
  <path class="st0" d="M73.8,81.7c0,1.2-.9,2.1-2.1,2.1s-2.1-.9-2.1-2.1.9-2.1,2.1-2.1,2.1.9,2.1,2.1M71.6,83.2c.8,0,1.4-.6,1.4-1.4s-.6-1.4-1.4-1.4-1.4.6-1.4,1.4.6,1.4,1.4,1.4"/>
  <polygon class="st0" points="75 79.7 75.7 79.7 75.7 83.1 78 83.1 78 83.8 75 83.8 75 79.7"/>
  <rect class="st0" x="79.1" y="79.7" width=".7" height="4.1"/>
  <path class="st0" d="M82.5,79.6c.6,0,1,.2,1.3.4v.6c-.2-.2-.7-.4-1.2-.4s-.9.2-.9.5.3.5.9.6c1,.2,1.5.6,1.5,1.3s-.6,1.2-1.7,1.2-1.1-.2-1.5-.4v-.6c.3.2.8.4,1.4.4s1.1-.2,1.1-.5-.3-.5-1-.6c-1-.2-1.5-.6-1.5-1.3s.5-1.1,1.5-1.1"/>
  <path class="st0" d="M19.8,69.1c0-3.3,2.4-5.6,5.8-5.6s2.6.4,3.5,1.1v2c-.8-.8-1.9-1.3-3.3-1.3-2.4,0-4.1,1.6-4.1,3.8s1.7,3.8,4.1,3.8,2.5-.5,3.3-1.3v2c-.9.7-2.2,1.1-3.5,1.1-3.4,0-5.8-2.3-5.8-5.6"/>
  <path class="st0" d="M36.4,63.7h.9l5.4,10.8h-2.1l-1-2h-5.5l-1,2h-2.1l5.4-10.8ZM34.9,70.8h3.9l-2-4.1-2,4.1Z"/>
  <path class="st0" d="M48.9,63.5c1.6,0,2.7.4,3.5,1.1v1.7c-.7-.6-1.8-1-3.3-1s-2.4.4-2.4,1.2.8,1.2,2.5,1.5c2.8.5,4,1.6,4,3.4s-1.6,3.1-4.4,3.1-3-.4-3.9-1.1v-1.7c.8.6,2,1,3.6,1s2.8-.5,2.8-1.4-.8-1.2-2.6-1.6c-2.7-.5-4-1.6-4-3.3s1.4-3,4-3"/>
  <path class="st0" d="M55.7,69.1c0-3.3,2.4-5.6,5.8-5.6s2.6.4,3.5,1.1v2c-.8-.8-1.9-1.3-3.3-1.3-2.4,0-4.1,1.6-4.1,3.8s1.7,3.8,4.1,3.8,2.5-.5,3.3-1.3v2c-.9.7-2.2,1.1-3.5,1.1-3.4,0-5.8-2.3-5.8-5.6"/>
  <path class="st0" d="M72.3,63.7h.9l5.4,10.8h-2.1l-1-2h-5.5l-1,2h-2.1l5.4-10.8ZM70.8,70.8h3.9l-2-4.1-2,4.1Z"/>
  <path class="st0" d="M85.8,63.7c3.3,0,5.6,2.2,5.6,5.4s-2.3,5.4-5.6,5.4h-4.5v-10.8h4.5ZM83.1,65.4v7.5h2.6c2.1,0,3.6-1.5,3.6-3.7s-1.5-3.7-3.6-3.7h-2.6Z"/>
  <polygon class="st0" points="94.5 63.7 102.7 63.7 102.7 65.4 96.4 65.4 96.4 68.2 101.5 68.2 101.5 69.9 96.4 69.9 96.4 72.8 102.8 72.8 102.8 74.5 94.5 74.5 94.5 63.7"/>
  <path class="st0" d="M109.4,63.5c1.6,0,2.7.4,3.5,1.1v1.7c-.7-.6-1.8-1-3.3-1s-2.4.4-2.4,1.2.8,1.2,2.5,1.5c2.8.5,4,1.6,4,3.4s-1.6,3.1-4.4,3.1-3-.4-3.9-1.1v-1.7c.8.6,2,1,3.6,1s2.8-.5,2.8-1.4-.8-1.2-2.6-1.6c-2.7-.5-4-1.6-4-3.3s1.4-3,4-3"/>
</svg>